<?xml version="1.0" standalone="no"?><svg xmlns="http://www.w3.org/2000/svg" viewBox="0 0 1440 320"><path fill="#8B0000" fill-opacity="1" d="M0,160L6.5,160C13,160,26,160,39,144C51.9,128,65,96,78,85.3C90.8,75,104,85,117,85.3C129.7,85,143,75,156,74.7C168.6,75,182,85,195,90.7C207.6,96,221,96,234,133.3C246.5,171,259,245,272,266.7C285.4,288,298,256,311,224C324.3,192,337,160,350,128C363.2,96,376,64,389,53.3C402.2,43,415,53,428,58.7C441.1,64,454,64,467,106.7C480,149,493,235,506,266.7C518.9,299,532,277,545,229.3C557.8,181,571,107,584,117.3C596.8,128,610,224,623,250.7C635.7,277,649,235,662,218.7C674.6,203,688,213,701,234.7C713.5,256,726,288,739,261.3C752.4,235,765,149,778,133.3C791.4,117,804,171,817,165.3C830.3,160,843,96,856,90.7C869.2,85,882,139,895,144C908.1,149,921,107,934,74.7C947,43,960,21,973,16C985.9,11,999,21,1012,64C1024.9,107,1038,181,1051,192C1063.8,203,1077,149,1090,138.7C1102.7,128,1116,160,1129,170.7C1141.6,181,1155,171,1168,144C1180.5,117,1194,75,1206,74.7C1219.5,75,1232,117,1245,128C1258.4,139,1271,117,1284,96C1297.3,75,1310,53,1323,48C1336.2,43,1349,53,1362,74.7C1375.1,96,1388,128,1401,138.7C1414.1,149,1427,139,1434,133.3L1440,128L1440,320L1433.5,320C1427,320,1414,320,1401,320C1388.1,320,1375,320,1362,320C1349.2,320,1336,320,1323,320C1310.3,320,1297,320,1284,320C1271.4,320,1258,320,1245,320C1232.4,320,1219,320,1206,320C1193.5,320,1181,320,1168,320C1154.6,320,1142,320,1129,320C1115.7,320,1103,320,1090,320C1076.8,320,1064,320,1051,320C1037.8,320,1025,320,1012,320C998.9,320,986,320,973,320C960,320,947,320,934,320C921.1,320,908,320,895,320C882.2,320,869,320,856,320C843.2,320,830,320,817,320C804.3,320,791,320,778,320C765.4,320,752,320,739,320C726.5,320,714,320,701,320C687.6,320,675,320,662,320C648.6,320,636,320,623,320C609.7,320,597,320,584,320C570.8,320,558,320,545,320C531.9,320,519,320,506,320C493,320,480,320,467,320C454.1,320,441,320,428,320C415.1,320,402,320,389,320C376.2,320,363,320,350,320C337.3,320,324,320,311,320C298.4,320,285,320,272,320C259.5,320,246,320,234,320C220.5,320,208,320,195,320C181.6,320,169,320,156,320C142.7,320,130,320,117,320C103.8,320,91,320,78,320C64.9,320,52,320,39,320C25.9,320,13,320,6,320L0,320Z"></path></svg>