<?xml version="1.0" standalone="no"?><svg xmlns="http://www.w3.org/2000/svg" viewBox="0 0 1440 320"><path fill="#124e66" fill-opacity="1" d="M0,192L10.4,176C20.9,160,42,128,63,117.3C83.5,107,104,117,125,112C146.1,107,167,85,188,112C208.7,139,230,213,250,250.7C271.3,288,292,288,313,245.3C333.9,203,355,117,376,117.3C396.5,117,417,203,438,234.7C459.1,267,480,245,501,218.7C521.7,192,543,160,563,165.3C584.3,171,605,213,626,197.3C647,181,668,107,689,112C709.6,117,730,203,751,234.7C772.2,267,793,245,814,240C834.8,235,856,245,877,208C897.4,171,918,85,939,69.3C960,53,981,107,1002,133.3C1022.6,160,1043,160,1064,160C1085.2,160,1106,160,1127,165.3C1147.8,171,1169,181,1190,170.7C1210.4,160,1231,128,1252,101.3C1273,75,1294,53,1315,69.3C1335.7,85,1357,139,1377,149.3C1398.3,160,1419,128,1430,112L1440,96L1440,0L1429.6,0C1419.1,0,1398,0,1377,0C1356.5,0,1336,0,1315,0C1293.9,0,1273,0,1252,0C1231.3,0,1210,0,1190,0C1168.7,0,1148,0,1127,0C1106.1,0,1085,0,1064,0C1043.5,0,1023,0,1002,0C980.9,0,960,0,939,0C918.3,0,897,0,877,0C855.7,0,835,0,814,0C793,0,772,0,751,0C730.4,0,710,0,689,0C667.8,0,647,0,626,0C605.2,0,584,0,563,0C542.6,0,522,0,501,0C480,0,459,0,438,0C417.4,0,397,0,376,0C354.8,0,334,0,313,0C292.2,0,271,0,250,0C229.6,0,209,0,188,0C167,0,146,0,125,0C104.3,0,83,0,63,0C41.7,0,21,0,10,0L0,0Z"></path></svg>